<svg xmlns="http://www.w3.org/2000/svg" width="280" height="280" viewBox="785 550 280 280" preserveAspectRatio="xMidYMid meet"><path d="M969.013 597.917v31.438h-0.029v23.959a38.688 38.688 0 0 1 -11.401 27.496c-0.894 0.894 -1.814 1.755 -2.793 2.564a47.037 47.037 0 0 1 -3.052 2.272h-0.029c-0.72 0.462 -1.411 0.894 -2.161 1.326v0.029a26.458 26.458 0 0 1 -1.729 0.92c-0.603 0.317 -1.208 0.576 -1.814 0.864a55.856 55.856 0 0 1 -1.411 0.603q-0.559 0.223 -1.12 0.432c-0.55 0.206 -1.123 0.376 -1.699 0.576 -0.576 0.176 -1.152 0.373 -1.729 0.52s-1.179 0.288 -1.755 0.432c-0.432 0.088 -0.864 0.141 -1.296 0.229 -0.517 0.088 -1.008 0.176 -1.529 0.259 -0.632 0.088 -1.264 0.147 -1.926 0.206q-0.911 0.073 -1.814 0.109h-0.059c-0.517 0.032 -1.064 0.059 -1.587 0.059h-38.894v-94.295h0.026l19.403 15.634 0.035 0.029 19.403 -15.663h0.059l19.432 15.663 19.438 -15.663Zm0 175.81v44.4h-77.826V692.238h0.026l19.403 15.693 19.467 15.752 19.462 15.722 5.042 4.086c0.576 0.462 1.123 0.92 1.64 1.441h0.029c0.462 0.432 0.92 0.864 1.352 1.294q1.294 1.343 2.508 2.763a39.981 39.981 0 0 1 6.506 11.374c0.432 1.182 0.806 2.393 1.123 3.598 0.173 0.664 0.317 1.352 0.491 2.046 0.229 1.235 0.429 2.475 0.547 3.772 0.171 1.294 0.229 2.622 0.229 3.945" fill="#0c2341"/></svg>
